<svg preserveAspectRatio="none" width="100%" height="100%" overflow="visible" style="display: block;" viewBox="0 0 14 13.5" fill="none" xmlns="http://www.w3.org/2000/svg">
<path id="Union" d="M6.27905 6.64905C6.66958 6.25855 7.30272 6.25854 7.69324 6.64905L9.91473 8.87061C10.1344 9.09028 10.1344 9.44641 9.91473 9.66608C9.69507 9.88574 9.33893 9.88574 9.11926 9.66608L7.5625 8.10931V12.9375C7.5625 13.2482 7.31066 13.5 7 13.5C6.68934 13.5 6.4375 13.2482 6.4375 12.9375V8.0816L4.85303 9.66608C4.63336 9.88575 4.27717 9.88575 4.0575 9.66608C3.83784 9.44641 3.83785 9.09028 4.0575 8.87061L6.27905 6.64905ZM7 0C9.30222 0 11.1949 1.7532 11.4159 3.99731C11.4147 3.99693 11.4135 3.99654 11.4124 3.99615C12.9144 4.48537 14 5.89715 14 7.5625C14 8.54587 13.6215 9.44082 13.0022 10.1096C12.7744 10.3557 12.3921 10.3296 12.155 10.0925C11.9523 9.88974 11.9838 9.554 12.1784 9.34344C12.6108 8.87551 12.875 8.24987 12.875 7.5625C12.875 6.26785 11.9378 5.19226 10.7048 4.97693C10.4801 4.93769 10.307 4.73571 10.3118 4.50769C10.3123 4.48436 10.3125 4.46095 10.3125 4.4375C10.3125 4.22386 10.2922 4.01495 10.2536 3.81256C10.2591 3.81257 10.2646 3.81265 10.2701 3.81268C10.2646 3.81265 10.2591 3.81251 10.2536 3.8125C9.96134 2.28187 8.61578 1.125 7 1.125C5.38422 1.125 4.0386 2.28187 3.74634 3.8125C3.7408 3.81251 3.73527 3.81265 3.72974 3.81268C3.73527 3.81265 3.7408 3.81257 3.74634 3.81256C3.7077 4.01494 3.6875 4.22386 3.6875 4.4375C3.6875 4.46095 3.68775 4.48436 3.68823 4.50769C3.69298 4.7357 3.51989 4.93768 3.29523 4.97693C2.06225 5.19227 1.125 6.26786 1.125 7.5625C1.125 8.24985 1.38922 8.8755 1.82159 9.34344C2.01614 9.55401 2.04768 9.88975 1.84497 10.0925C1.60787 10.3296 1.22562 10.3556 0.997803 10.1096C0.378539 9.44081 0 8.54586 0 7.5625C0 5.89581 1.08732 4.48311 2.59131 3.995C2.58889 3.99578 2.58646 3.99653 2.58405 3.99731C2.80503 1.75319 4.69778 0 7 0ZM2.7356 3.95142C2.72832 3.95345 2.72106 3.9555 2.71381 3.95758C2.72106 3.9555 2.72832 3.95345 2.7356 3.95142ZM3.08374 3.87152C3.07691 3.87275 3.07011 3.8741 3.06329 3.87537C3.07011 3.8741 3.07691 3.87275 3.08374 3.87152ZM10.9366 3.87537C10.9318 3.87448 10.927 3.87349 10.9222 3.87262L10.9169 3.8717C10.9235 3.87289 10.93 3.87415 10.9366 3.87537ZM3.23798 3.84723C3.22842 3.84853 3.21888 3.84988 3.20935 3.85126C3.21888 3.84988 3.22842 3.84853 3.23798 3.84723ZM10.7619 3.84723C10.7715 3.84853 10.781 3.84988 10.7905 3.85126C10.781 3.84988 10.7715 3.84853 10.7619 3.84723ZM3.39191 3.82947C3.37678 3.8309 3.36169 3.83243 3.34662 3.83405C3.36169 3.83243 3.37678 3.8309 3.39191 3.82947ZM10.608 3.82947C10.6231 3.8309 10.6382 3.83243 10.6533 3.83405C10.6382 3.83243 10.6231 3.8309 10.608 3.82947Z" fill="var(--fill-0, #091E40)" fill-opacity="0.78"/>
</svg>
