<svg preserveAspectRatio="none" width="100%" height="100%" overflow="visible" style="display: block;" viewBox="0 0 10.25 11.75" fill="none" xmlns="http://www.w3.org/2000/svg">
<path id="Union" d="M6.05963 0C6.52753 4.91751e-06 6.97729 0.180972 7.31482 0.505005L9.69269 2.78778C10.0487 3.12957 10.25 3.60174 10.25 4.09528V9.9375C10.25 10.9385 9.43852 11.75 8.4375 11.75H1.8125C0.811484 11.75 0 10.9385 0 9.9375V1.8125C0 0.811484 0.811484 0 1.8125 0H6.05963ZM1.8125 1.125C1.4328 1.125 1.125 1.4328 1.125 1.8125V9.9375C1.125 10.3172 1.4328 10.625 1.8125 10.625H8.4375C8.8172 10.625 9.125 10.3172 9.125 9.9375V4.90625H6.53125C5.94445 4.90625 5.46875 4.43055 5.46875 3.84375V1.125H1.8125ZM7.25 8.3125C7.52614 8.3125 7.75 8.53636 7.75 8.8125C7.75 9.08864 7.52614 9.3125 7.25 9.3125H3C2.72386 9.3125 2.5 9.08864 2.5 8.8125C2.5 8.53636 2.72386 8.3125 3 8.3125H7.25ZM5.25 6.3125C5.52614 6.3125 5.75 6.53636 5.75 6.8125C5.75 7.08864 5.52614 7.3125 5.25 7.3125H3C2.72386 7.3125 2.5 7.08864 2.5 6.8125C2.5 6.53636 2.72386 6.3125 3 6.3125H5.25ZM6.59375 3.78125H9.04883C9.0144 3.71421 8.96908 3.65253 8.91364 3.5993L6.59375 1.37219V3.78125Z" fill="var(--fill-0, #091E40)" fill-opacity="0.78"/>
</svg>
