<svg preserveAspectRatio="none" width="100%" height="100%" overflow="visible" style="display: block;" viewBox="0 0 10.375 11.25" fill="none" xmlns="http://www.w3.org/2000/svg">
<path id="Union" d="M1.8125 0C2.12316 0 2.375 0.25184 2.375 0.5625C2.375 0.87316 2.12316 1.125 1.8125 1.125H1.125V4.1875C1.125 4.98141 1.76859 5.625 2.5625 5.625H3.5625C4.35641 5.625 5 4.98141 5 4.1875V1.125H4.3125C4.00184 1.125 3.75 0.87316 3.75 0.5625C3.75 0.25184 4.00184 0 4.3125 0H5.0625C5.6493 0 6.125 0.475698 6.125 1.0625V4.1875C6.125 5.58184 5.01135 6.71596 3.625 6.74915V7.875C3.625 9.11764 4.63236 10.125 5.875 10.125C7.11764 10.125 8.125 9.11764 8.125 7.875V7.40381C7.46961 7.17214 7 6.54723 7 5.8125C7 4.88052 7.75552 4.125 8.6875 4.125C9.61948 4.125 10.375 4.88052 10.375 5.8125C10.375 6.54723 9.90539 7.17214 9.25 7.40381V7.875C9.25 9.73896 7.73896 11.25 5.875 11.25C4.01104 11.25 2.5 9.73896 2.5 7.875V6.74915C1.11365 6.71596 0 5.58184 0 4.1875V1.0625C0 0.475697 0.475698 0 1.0625 0H1.8125ZM8.6875 5.25C8.37684 5.25 8.125 5.50184 8.125 5.8125C8.125 6.12316 8.37684 6.375 8.6875 6.375C8.99816 6.375 9.25 6.12316 9.25 5.8125C9.25 5.50184 8.99816 5.25 8.6875 5.25Z" fill="var(--fill-0, #091E40)" fill-opacity="0.78"/>
</svg>
