<svg preserveAspectRatio="none" width="100%" height="100%" overflow="visible" style="display: block;" viewBox="0 0 13 13" fill="none" xmlns="http://www.w3.org/2000/svg">
<path id="Union" d="M6.5 0C6.81066 0 7.0625 0.25184 7.0625 0.5625V1.72003C9.27081 1.97711 11.0228 3.72919 11.2799 5.9375H12.4375C12.7482 5.9375 13 6.18934 13 6.5C13 6.81066 12.7482 7.0625 12.4375 7.0625H11.2799C11.0228 9.27081 9.27081 11.0228 7.0625 11.2799V12.4375C7.0625 12.7482 6.81066 13 6.5 13C6.18934 13 5.9375 12.7482 5.9375 12.4375V11.2799C3.72919 11.0228 1.97718 9.27081 1.72009 7.0625H0.5625C0.25184 7.0625 4.87036e-08 6.81066 0 6.5C1.35794e-08 6.18934 0.25184 5.9375 0.5625 5.9375H1.72009C1.97718 3.72919 3.72919 1.97711 5.9375 1.72003V0.5625C5.9375 0.25184 6.18934 0 6.5 0ZM7.0625 3.4375C7.0625 3.74816 6.81066 4 6.5 4C6.18934 4 5.9375 3.74816 5.9375 3.4375V2.8551C4.35133 3.09788 3.09788 4.35133 2.8551 5.9375H3.4375C3.74816 5.9375 4 6.18934 4 6.5C4 6.81066 3.74816 7.0625 3.4375 7.0625H2.8551C3.09788 8.64867 4.35133 9.90206 5.9375 10.1448V9.5625C5.9375 9.25184 6.18934 9 6.5 9C6.81066 9 7.0625 9.25184 7.0625 9.5625V10.1448C8.64867 9.90206 9.90212 8.64867 10.1449 7.0625H9.5625C9.25184 7.0625 9 6.81066 9 6.5C9 6.18934 9.25184 5.9375 9.5625 5.9375H10.1449C9.90212 4.35133 8.64867 3.09788 7.0625 2.8551V3.4375Z" fill="var(--fill-0, #091E40)" fill-opacity="0.78"/>
</svg>
