<svg preserveAspectRatio="none" width="100%" height="100%" overflow="visible" style="display: block;" viewBox="0 0 12.875 11" fill="none" xmlns="http://www.w3.org/2000/svg">
<path id="Union" d="M10.625 0C11.2118 1.2886e-07 11.6875 0.475697 11.6875 1.0625V9.875H12.3125C12.6232 9.875 12.875 10.1268 12.875 10.4375C12.875 10.7482 12.6232 11 12.3125 11H0.5625C0.25184 11 0 10.7482 0 10.4375C0 10.1268 0.25184 9.875 0.5625 9.875H1.1875V7.4375C1.1875 6.8507 1.6632 6.375 2.25 6.375H4.3125V4.4375C4.3125 3.8507 4.7882 3.375 5.375 3.375H7.4375V1.0625C7.4375 0.475698 7.9132 0 8.5 0H10.625ZM2.3125 9.875H4.3125V7.5H2.3125V9.875ZM5.4375 9.875H7.4375V4.5H5.4375V9.875ZM8.5625 9.875H10.5625V1.125H8.5625V9.875Z" fill="var(--fill-0, #091E40)" fill-opacity="0.78"/>
</svg>
