<svg preserveAspectRatio="none" width="100%" height="100%" overflow="visible" style="display: block;" viewBox="0 0 11.5 11" fill="none" xmlns="http://www.w3.org/2000/svg">
<path id="Union" d="M0.5625 0C0.87316 0 1.125 0.25184 1.125 0.5625V9.31476C1.12501 9.60268 1.37493 9.875 1.73224 9.875H10.9375C11.2482 9.875 11.5 10.1268 11.5 10.4375C11.5 10.7482 11.2482 11 10.9375 11H1.73224C0.797517 11 7.45426e-06 10.267 0 9.31476V0.5625C0 0.25184 0.25184 0 0.5625 0ZM3.375 5.125C3.68566 5.125 3.9375 5.37684 3.9375 5.6875V7.9375C3.9375 8.24816 3.68566 8.5 3.375 8.5C3.06434 8.5 2.8125 8.24816 2.8125 7.9375V5.6875C2.8125 5.37684 3.06434 5.125 3.375 5.125ZM6.125 3.5C6.43566 3.5 6.6875 3.75184 6.6875 4.0625V7.9375C6.6875 8.24816 6.43566 8.5 6.125 8.5C5.81434 8.5 5.5625 8.24816 5.5625 7.9375V4.0625C5.5625 3.75184 5.81434 3.5 6.125 3.5ZM8.875 1.875C9.18566 1.875 9.4375 2.12684 9.4375 2.4375V7.9375C9.4375 8.24816 9.18566 8.5 8.875 8.5C8.56434 8.5 8.3125 8.24816 8.3125 7.9375V2.4375C8.3125 2.12684 8.56434 1.875 8.875 1.875Z" fill="var(--fill-0, #091E40)" fill-opacity="0.78"/>
</svg>
