<svg preserveAspectRatio="none" width="100%" height="100%" overflow="visible" style="display: block;" viewBox="0 0 11.125 10.0003" fill="none" xmlns="http://www.w3.org/2000/svg">
<path id="Union" d="M9.53937 0.0292256C10.3559 -0.144492 11.125 0.478231 11.125 1.31304V6.14776C11.125 6.98257 10.3559 7.6053 9.53937 7.43158L8.10187 7.12573C7.65535 7.03073 7.3026 6.71516 7.14783 6.3078L5.61749 6.18133L5.30786 7.33704C5.30928 7.33921 5.3108 7.34131 5.31219 7.34351L6.4494 9.13648C6.61576 9.39881 6.53795 9.74633 6.27563 9.91272C6.0133 10.0791 5.66572 10.0013 5.49933 9.73896L4.50281 8.16791L2.85437 9.03028C2.57911 9.17426 2.23922 9.06785 2.09521 8.7926C1.95122 8.51734 2.05763 8.17745 2.33289 8.03345L4.21417 7.04932C4.21647 7.04811 4.21882 7.047 4.22113 7.04584L4.47803 6.08716L1.20441 5.81665C0.523775 5.7604 1.44445e-05 5.19155 0 4.5086V2.9522C1.10928e-05 2.26925 0.523773 1.70041 1.20441 1.64416L7.14783 1.15295C7.30261 0.745613 7.65537 0.430073 8.10187 0.335073L9.53937 0.0292256ZM10 1.31304C10 1.19379 9.89014 1.10483 9.7735 1.12963L8.336 1.43548C8.24942 1.4539 8.1875 1.53037 8.1875 1.61889V5.84192C8.1875 5.93043 8.24942 6.00691 8.336 6.02533L9.7735 6.33118C9.89014 6.35598 10 6.26702 10 6.14776V1.31304ZM3.875 2.5523V4.90844L7.0625 5.17187V2.28887L3.875 2.5523ZM1.29706 2.76537C1.19983 2.77341 1.12501 2.85465 1.125 2.9522V4.5086C1.12501 4.60616 1.19983 4.6874 1.29706 4.69543L2.75 4.81549V2.64526L1.29706 2.76537Z" fill="var(--fill-0, #091E40)" fill-opacity="0.78"/>
</svg>
