<svg preserveAspectRatio="none" width="100%" height="100%" overflow="visible" style="display: block;" viewBox="0 0 11.375 11.375" fill="none" xmlns="http://www.w3.org/2000/svg">
<path id="Union" d="M9.3125 0C10.4516 0 11.375 0.923413 11.375 2.0625V9.3125C11.375 10.4516 10.4516 11.375 9.3125 11.375H1.84375C0.825475 11.375 0 10.5495 0 9.53125C0 9.22059 0.25184 8.96875 0.5625 8.96875C0.87316 8.96875 1.125 9.22059 1.125 9.53125C1.125 9.9282 1.4468 10.25 1.84375 10.25H9.3125C9.83027 10.25 10.25 9.83027 10.25 9.3125V2.0625C10.25 1.54473 9.83027 1.125 9.3125 1.125H2.0625C1.54473 1.125 1.125 1.54473 1.125 2.0625V5.6875C1.125 5.99816 0.87316 6.25 0.5625 6.25C0.25184 6.25 0 5.99816 0 5.6875V2.0625C6.44299e-08 0.923413 0.923413 0 2.0625 0H9.3125ZM8.5 3.875C9.01777 3.875 9.4375 4.29473 9.4375 4.8125V6.8125C9.4375 7.12316 9.18566 7.375 8.875 7.375C8.56434 7.375 8.3125 7.12316 8.3125 6.8125V5.87201L6.4292 7.3595C5.89537 7.78111 5.12789 7.72494 4.66107 7.23016L3.84589 6.36621C3.78113 6.2976 3.67546 6.2878 3.59918 6.34332L0.955872 8.26727C0.704702 8.45008 0.352921 8.39466 0.170105 8.14349C-0.0127022 7.89232 0.0427181 7.54054 0.293884 7.35773L2.93713 5.43378C3.47117 5.04507 4.21089 5.11375 4.66418 5.59418L5.47931 6.45813C5.546 6.52881 5.65567 6.53685 5.73193 6.47662L7.60156 5H6.5C6.18934 5 5.9375 4.74816 5.9375 4.4375C5.9375 4.12684 6.18934 3.875 6.5 3.875H8.5Z" fill="var(--fill-0, #091E40)" fill-opacity="0.78"/>
</svg>
