<svg preserveAspectRatio="none" width="100%" height="100%" overflow="visible" style="display: block;" viewBox="0 0 11.125 11.125" fill="none" xmlns="http://www.w3.org/2000/svg">
<path id="Vector (Stroke)" d="M6.48651 5.5625C6.48651 5.05219 6.07281 4.63849 5.5625 4.63849C5.05219 4.63849 4.63849 5.05219 4.63849 5.5625C4.63849 6.07281 5.05219 6.48651 5.5625 6.48651C6.07281 6.48651 6.48651 6.07281 6.48651 5.5625ZM5 1.91388V0.5625C5 0.25184 5.25184 0 5.5625 0C8.63456 0 11.125 2.49042 11.125 5.5625C11.125 8.63457 8.63457 11.125 5.5625 11.125C2.49042 11.125 0 8.63456 0 5.5625C0 5.25184 0.25184 5 0.5625 5C0.87316 5 1.125 5.25184 1.125 5.5625C1.125 8.01325 3.11174 10 5.5625 10C8.01325 10 10 8.01325 10 5.5625C10 3.30228 8.31018 1.4367 6.125 1.16028V1.91388C6.12498 2.22453 5.87315 2.47638 5.5625 2.47638C5.25185 2.47638 5.00002 2.22453 5 1.91388ZM7.61151 5.5625C7.61151 6.69413 6.69413 7.61151 5.5625 7.61151C4.43087 7.61151 3.51349 6.69413 3.51349 5.5625C3.51349 5.20111 3.60715 4.86162 3.77136 4.56683L1.65125 2.44672C1.43158 2.22705 1.43158 1.87091 1.65125 1.65125C1.87091 1.43158 2.22705 1.43158 2.44672 1.65125L4.56683 3.77136C4.86162 3.60715 5.20111 3.51349 5.5625 3.51349C6.69413 3.51349 7.61151 4.43087 7.61151 5.5625Z" fill="var(--fill-0, #091E40)" fill-opacity="0.78"/>
</svg>
