<svg preserveAspectRatio="none" width="100%" height="100%" overflow="visible" style="display: block;" viewBox="0 0 13.25 11" fill="none" xmlns="http://www.w3.org/2000/svg">
<path id="Union" d="M12.6875 0C12.9982 0 13.25 0.25184 13.25 0.5625C13.25 0.87316 12.9982 1.125 12.6875 1.125H11.9629V7.59259C11.9629 8.5426 11.1926 9.3125 10.2427 9.3125H7.98297L8.75586 10.0236C8.98447 10.2339 8.99927 10.5897 8.78894 10.8184C8.5786 11.047 8.22276 11.0618 7.99414 10.8514L6.625 9.5918L5.25586 10.8514C5.02724 11.0618 4.6714 11.047 4.46106 10.8184C4.25073 10.5897 4.26553 10.2339 4.49414 10.0236L5.26703 9.3125H3.00732C2.05743 9.3125 1.28711 8.54261 1.28711 7.59259V1.125H0.5625C0.25184 1.125 0 0.87316 0 0.5625C0 0.25184 0.25184 0 0.5625 0H12.6875ZM2.41211 7.59259C2.41211 7.92104 2.6785 8.1875 3.00732 8.1875H10.2427C10.5715 8.1875 10.8379 7.92105 10.8379 7.59259V1.125H2.41211V7.59259ZM8.125 5.875C8.40114 5.875 8.625 6.09886 8.625 6.375C8.625 6.65114 8.40114 6.875 8.125 6.875H5.125C4.84886 6.875 4.625 6.65114 4.625 6.375C4.625 6.09886 4.84886 5.875 5.125 5.875H8.125Z" fill="var(--fill-0, #091E40)" fill-opacity="0.78"/>
</svg>
