<svg preserveAspectRatio="none" width="100%" height="100%" overflow="visible" style="display: block;" viewBox="0 0 11.5 11" fill="none" xmlns="http://www.w3.org/2000/svg">
<path id="Union" d="M0.5625 0C0.87316 0 1.125 0.25184 1.125 0.5625V7.02197L3.18457 5.24591C3.61858 4.87163 4.24525 4.8222 4.73254 5.12384L5.74182 5.74866C5.81424 5.79349 5.90782 5.78385 5.9696 5.72522L8.14087 3.66473C8.61464 3.21513 9.34691 3.1823 9.85901 3.58771L10.849 4.37146C11.0926 4.56428 11.1337 4.91805 10.9409 5.16162C10.7481 5.40518 10.3943 5.44635 10.1508 5.25354L9.16071 4.46979C9.08755 4.41188 8.98296 4.41655 8.91528 4.48077L6.74402 6.54126C6.31151 6.9517 5.65664 7.01904 5.14966 6.7052L4.14044 6.08038C4.07083 6.03729 3.98125 6.04437 3.91925 6.09784L1.125 8.50757V9.31476C1.12501 9.60268 1.37493 9.875 1.73224 9.875H10.9375C11.2482 9.875 11.5 10.1268 11.5 10.4375C11.5 10.7482 11.2482 11 10.9375 11H1.73224C0.797517 11 7.45427e-06 10.267 0 9.31476L0 0.5625C0 0.25184 0.25184 0 0.5625 0Z" fill="var(--fill-0, #091E40)" fill-opacity="0.78"/>
</svg>
